<?xml version="1.0" encoding="UTF-8"?>
<!-- Generator: Adobe Illustrator 22.1.0, SVG Export Plug-In . SVG Version: 6.00 Build 0)  -->
<svg version="1.1" id="Calque_1" xmlns="http://www.w3.org/2000/svg" xmlns:xlink="http://www.w3.org/1999/xlink" x="0px" y="0px" viewBox="0 0 142 144" style="enable-background:new 0 0 142 144;" xml:space="preserve">
<g>
	<g>
		<path d="M-0.5,30.2C6.8,17.5,17.3,7,29.8-0.4H-0.5V30.2"/>
		<path d="M-0.5,113.5v30.6h30.3C17.3,136.8,6.8,126.2-0.5,113.5"/>
		<path d="M142.4,113.3c-7.3,12.8-17.8,23.4-30.4,30.8h30.4V113.3z"/>
		<path d="M112.1-0.4c12.6,7.4,23.1,18,30.4,30.7V-0.4H112.1z"/>
		<path d="M58.6,37h52.7v11.4H92.1l-1.7,23.7c-0.3,4.1-0.4,7.6-0.4,10.6c0,7.2,0.9,11.6,2.6,13.2c1.8,1.6,4,2.3,6.5,2.3    c5.3,0,8.4-3.1,9.4-9.4h3c-1.8,14.4-7.9,21.6-18.3,21.6c-4.8,0-8.8-1.4-11.8-4.2c-2.9-2.8-4.3-7-4.3-12.5c0-3.6,0.5-11.3,1.7-23    L81,48.4H63.5c-1.2,18.9-2.6,32.7-4.2,41.4c-1.6,8.7-3.4,14.3-5.3,16.9c-1.9,2.5-4.6,3.8-7.9,3.8c-2.5,0-4.7-0.7-6.5-2.1    c-1.7-1.4-2.5-3.2-2.5-5.5c0-2.2,1.5-5.1,4.4-8.9c4.3-5.5,7.6-11.3,9.7-17.2c2.1-6,3.8-15.4,4.9-28.4h-5.6c-4.5,0-8,1-10.4,2.9    c-2.4,1.9-4.6,4.5-6.7,8.1h-3c1.6-5.6,3.7-10.1,6.2-13.7c2.5-3.6,5.1-5.9,7.8-7C47,37.5,51.7,37,58.6,37 M70.9,4.4    C34.1,4.4,4.2,34.6,4.2,71.8c0,37.2,29.9,67.5,66.7,67.5s66.8-30.3,66.8-67.5C137.7,34.6,107.8,4.4,70.9,4.4 M-0.5,30.2"/>
	</g>
</g>
</svg>